<svg width="28" height="28" viewBox="0 0 28 28" fill="none" xmlns="http://www.w3.org/2000/svg">
<path d="M27.6367 14.3762C27.6559 6.82022 21.5825 0.683195 14.0781 0.664134C6.56861 0.645061 0.469193 6.75116 0.450001 14.3072C0.432666 21.1322 5.38751 26.804 11.8851 27.8454L11.9093 18.2908L8.45748 18.282L8.46752 14.3284L11.9194 14.3371L11.927 11.3221C11.9357 7.89502 13.9668 6.00753 17.0729 6.01542C18.5605 6.0192 20.1171 6.28987 20.1171 6.28987L20.1086 9.6554L18.3916 9.65104C16.706 9.64676 16.1766 10.7012 16.1738 11.7825L16.1673 14.3471L19.9369 14.3566L19.3211 18.3088L16.1573 18.3007L16.133 27.8554C22.6307 26.8469 27.6194 21.2004 27.6367 14.3754L27.6367 14.3762Z" fill="#193FF6"/>
</svg>
